HIERARCHY
ROOT Hips
{
	OFFSET 0.000000 83.214638 0.000000
	CHANNELS 6 Xposition Yposition Zposition Xrotation Yrotation Zrotation
	JOINT Pelvis
	{
		OFFSET 0.000000 0.000000 0.000000
		CHANNELS 3 Xrotation Yrotation Zrotation
		JOINT LeftUpLeg
		{
			OFFSET 8.479700 -4.795502 -0.379100
			CHANNELS 3 Xrotation Yrotation Zrotation
			JOINT LeftLeg
			{
				OFFSET 0.024144 -32.555107 0.112900
				CHANNELS 3 Xrotation Yrotation Zrotation
				JOINT LeftFoot
				{
					OFFSET -0.024144 -32.638630 -3.012600
					CHANNELS 3 Xrotation Yrotation Zrotation
					JOINT LeftToeBase
					{
						OFFSET 0.970200 -13.225400 11.864200
						CHANNELS 3 Xrotation Yrotation Zrotation
						End Site
						{
							OFFSET 0.000000 12.319262 0.000000
						}
					}
					JOINT LFootTongue
					{
						OFFSET 1.142400 -1.059800 6.665200
						CHANNELS 3 Xrotation Yrotation Zrotation
						End Site
						{
							OFFSET 0.000000 12.319262 0.000000
						}
					}
				}
				JOINT LeftPantLeg
				{
					OFFSET 0.918482 -16.533964 -2.284700
					CHANNELS 3 Xrotation Yrotation Zrotation
					End Site
					{
						OFFSET 0.350399 24.744368 0.000000
					}
				}
			}
		}
		JOINT RightUpLeg
		{
			OFFSET -8.479700 -4.795502 -0.379100
			CHANNELS 3 Xrotation Yrotation Zrotation
			JOINT RightLeg
			{
				OFFSET -0.023144 -32.555092 0.112900
				CHANNELS 3 Xrotation Yrotation Zrotation
				JOINT RightFoot
				{
					OFFSET 0.023144 -32.638641 -3.012700
					CHANNELS 3 Xrotation Yrotation Zrotation
					JOINT RightToeBase
					{
						OFFSET -0.970200 -13.225400 11.864200
						CHANNELS 3 Xrotation Yrotation Zrotation
						End Site
						{
							OFFSET 0.000000 12.319244 0.000000
						}
					}
					JOINT RFootTongue
					{
						OFFSET -1.142200 -1.059800 6.665200
						CHANNELS 3 Xrotation Yrotation Zrotation
						End Site
						{
							OFFSET 0.000000 12.319243 0.000000
						}
					}
				}
				JOINT RightPantLeg
				{
					OFFSET -0.919482 -16.533978 -2.284800
					CHANNELS 3 Xrotation Yrotation Zrotation
					End Site
					{
						OFFSET -0.350400 24.744419 0.000000
					}
				}
			}
		}
	}
	JOINT Spine
	{
		OFFSET 0.000000 7.722000 1.166200
		CHANNELS 3 Xrotation Yrotation Zrotation
		JOINT Spine1
		{
			OFFSET 0.000000 12.024101 0.248800
			CHANNELS 3 Xrotation Yrotation Zrotation
			JOINT Spine2
			{
				OFFSET 0.000000 11.502998 -0.491200
				CHANNELS 3 Xrotation Yrotation Zrotation
				JOINT Neck
				{
					OFFSET 0.000000 18.430702 -3.123100
					CHANNELS 3 Xrotation Yrotation Zrotation
					JOINT Head
					{
						OFFSET 0.000000 9.051102 1.034000
						CHANNELS 3 Xrotation Yrotation Zrotation
						JOINT HairB
						{
							OFFSET 0.208400 24.786102 24.822300
							CHANNELS 3 Xrotation Yrotation Zrotation
							End Site
							{
								OFFSET 0.000000 32.263779 0.000000
							}
						}
						JOINT HairA
						{
							OFFSET -7.081100 24.428299 23.196600
							CHANNELS 3 Xrotation Yrotation Zrotation
							End Site
							{
								OFFSET 0.000000 32.263779 0.000000
							}
						}
						JOINT Hat
						{
							OFFSET 16.728800 15.048294 -15.439601
							CHANNELS 3 Xrotation Yrotation Zrotation
							End Site
							{
								OFFSET 0.000000 32.263779 0.000000
							}
						}
					}
				}
				JOINT LeftShoulder
				{
					OFFSET 6.197800 13.665199 -4.064700
					CHANNELS 3 Xrotation Yrotation Zrotation
					JOINT LeftArm
					{
						OFFSET 7.778100 -0.187103 -1.709300
						CHANNELS 3 Xrotation Yrotation Zrotation
						JOINT LeftForeArm
						{
							OFFSET 22.049376 0.000000 0.000000
							CHANNELS 3 Xrotation Yrotation Zrotation
							JOINT LeftHand
							{
								OFFSET 23.009392 0.000000 0.000000
								CHANNELS 3 Xrotation Yrotation Zrotation
								JOINT LeftHandThumb1
								{
									OFFSET 3.507191 -2.063065 3.133727
									CHANNELS 3 Xrotation Yrotation Zrotation
									JOINT LeftHandThumb2
									{
										OFFSET 3.101337 -1.790558 1.790558
										CHANNELS 3 Xrotation Yrotation Zrotation
										JOINT LeftHandThumb3
										{
											OFFSET 3.058640 -1.765907 1.765906
											CHANNELS 3 Xrotation Yrotation Zrotation
											End Site
											{
												OFFSET -0.415260 3.926476 -0.049563
											}
										}
									}
								}
								JOINT LeftHandIndex1
								{
									OFFSET 11.334419 -0.901459 3.706815
									CHANNELS 3 Xrotation Yrotation Zrotation
									JOINT LeftHandIndex2
									{
										OFFSET 3.283112 0.000000 0.000000
										CHANNELS 3 Xrotation Yrotation Zrotation
										JOINT LeftHandIndex3
										{
											OFFSET 3.323853 0.000000 0.000000
											CHANNELS 3 Xrotation Yrotation Zrotation
											End Site
											{
												OFFSET -1.135597 3.097809 0.402452
											}
										}
									}
								}
								JOINT LeftHandMiddle1
								{
									OFFSET 11.335861 0.000000 0.000000
									CHANNELS 3 Xrotation Yrotation Zrotation
									JOINT LeftHandMiddle2
									{
										OFFSET 3.410492 0.000000 0.000000
										CHANNELS 3 Xrotation Yrotation Zrotation
										JOINT LeftHandMiddle3
										{
											OFFSET 3.312172 0.000000 0.000000
											CHANNELS 3 Xrotation Yrotation Zrotation
											End Site
											{
												OFFSET -1.150200 3.080154 0.400270
											}
										}
									}
								}
								JOINT LeftHandRing1
								{
									OFFSET 11.514786 -0.013176 -3.003090
									CHANNELS 3 Xrotation Yrotation Zrotation
									JOINT LeftHandRing2
									{
										OFFSET 3.053307 0.000000 0.000000
										CHANNELS 3 Xrotation Yrotation Zrotation
										JOINT LeftHandRing3
										{
											OFFSET 3.295807 0.000000 0.000000
											CHANNELS 3 Xrotation Yrotation Zrotation
											End Site
											{
												OFFSET -1.281006 3.013344 0.375733
											}
										}
									}
								}
								JOINT LeftHandPinky1
								{
									OFFSET 10.518692 -0.960396 -5.730441
									CHANNELS 3 Xrotation Yrotation Zrotation
									JOINT LeftHandPinky2
									{
										OFFSET 2.861649 0.000000 0.000000
										CHANNELS 3 Xrotation Yrotation Zrotation
										JOINT LeftHandPinky3
										{
											OFFSET 2.863380 0.000000 0.000000
											CHANNELS 3 Xrotation Yrotation Zrotation
											End Site
											{
												OFFSET -0.843597 2.711159 0.369971
											}
										}
									}
								}
							}
							JOINT LSleeve
							{
								OFFSET 6.676277 -0.344902 -1.011730
								CHANNELS 3 Xrotation Yrotation Zrotation
								End Site
								{
									OFFSET 0.000000 14.885353 0.000000
								}
							}
						}
					}
				}
				JOINT RightShoulder
				{
					OFFSET -6.197800 13.665199 -4.064700
					CHANNELS 3 Xrotation Yrotation Zrotation
					JOINT RightArm
					{
						OFFSET -7.778100 -0.187103 -1.709300
						CHANNELS 3 Xrotation Yrotation Zrotation
						JOINT RightForeArm
						{
							OFFSET -22.049376 0.000000 0.000000
							CHANNELS 3 Xrotation Yrotation Zrotation
							JOINT RightHand
							{
								OFFSET -23.009392 0.000000 0.000000
								CHANNELS 3 Xrotation Yrotation Zrotation
								JOINT RightHandThumb1
								{
									OFFSET -3.507191 -2.063065 3.133727
									CHANNELS 3 Xrotation Yrotation Zrotation
									JOINT RightHandThumb2
									{
										OFFSET -3.101337 -1.790558 1.790558
										CHANNELS 3 Xrotation Yrotation Zrotation
										JOINT RightHandThumb3
										{
											OFFSET -3.058640 -1.765907 1.765906
											CHANNELS 3 Xrotation Yrotation Zrotation
											End Site
											{
												OFFSET 0.415260 3.926476 -0.049563
											}
										}
									}
								}
								JOINT RightHandIndex1
								{
									OFFSET -11.334419 -0.901459 3.706815
									CHANNELS 3 Xrotation Yrotation Zrotation
									JOINT RightHandIndex2
									{
										OFFSET -3.283112 0.000000 0.000000
										CHANNELS 3 Xrotation Yrotation Zrotation
										JOINT RightHandIndex3
										{
											OFFSET -3.323853 0.000000 0.000000
											CHANNELS 3 Xrotation Yrotation Zrotation
											End Site
											{
												OFFSET 1.135597 3.097809 0.402452
											}
										}
									}
								}
								JOINT RightHandMiddle1
								{
									OFFSET -11.335861 0.000000 0.000000
									CHANNELS 3 Xrotation Yrotation Zrotation
									JOINT RightHandMiddle2
									{
										OFFSET -3.410492 0.000000 0.000000
										CHANNELS 3 Xrotation Yrotation Zrotation
										JOINT RightHandMiddle3
										{
											OFFSET -3.312172 0.000000 0.000000
											CHANNELS 3 Xrotation Yrotation Zrotation
											End Site
											{
												OFFSET 1.150200 3.080154 0.400270
											}
										}
									}
								}
								JOINT RightHandRing1
								{
									OFFSET -11.514786 -0.013176 -3.003090
									CHANNELS 3 Xrotation Yrotation Zrotation
									JOINT RightHandRing2
									{
										OFFSET -3.053307 0.000000 0.000000
										CHANNELS 3 Xrotation Yrotation Zrotation
										JOINT RightHandRing3
										{
											OFFSET -3.295807 0.000000 0.000000
											CHANNELS 3 Xrotation Yrotation Zrotation
											End Site
											{
												OFFSET 1.281006 3.013344 0.375733
											}
										}
									}
								}
								JOINT RightHandPinky1
								{
									OFFSET -10.518692 -0.960396 -5.730441
									CHANNELS 3 Xrotation Yrotation Zrotation
									JOINT RightHandPinky2
									{
										OFFSET -2.861649 0.000000 0.000000
										CHANNELS 3 Xrotation Yrotation Zrotation
										JOINT RightHandPinky3
										{
											OFFSET -2.863380 0.000000 0.000000
											CHANNELS 3 Xrotation Yrotation Zrotation
											End Site
											{
												OFFSET 0.843597 2.711159 0.369971
											}
										}
									}
								}
							}
							JOINT RSleeve
							{
								OFFSET -6.676277 -0.344902 -1.011730
								CHANNELS 3 Xrotation Yrotation Zrotation
								End Site
								{
									OFFSET 0.000000 14.885353 0.000000
								}
							}
						}
					}
				}
				JOINT Backpack
				{
					OFFSET 0.000000 -2.471497 36.677502
					CHANNELS 3 Xrotation Yrotation Zrotation
					End Site
					{
						OFFSET 0.000000 20.427315 0.000000
					}
				}
				JOINT Hood
				{
					OFFSET 0.000000 18.754097 -10.431000
					CHANNELS 3 Xrotation Yrotation Zrotation
					JOINT Hood1
					{
						OFFSET 0.000000 -5.011002 -7.685901
						CHANNELS 3 Xrotation Yrotation Zrotation
						End Site
						{
							OFFSET 0.000000 9.175140 0.000000
						}
					}
				}
				JOINT LHoodieString
				{
					OFFSET 5.250500 16.397697 3.089900
					CHANNELS 3 Xrotation Yrotation Zrotation
					JOINT LHoodieString1
					{
						OFFSET 0.257700 -6.364304 3.694600
						CHANNELS 3 Xrotation Yrotation Zrotation
						JOINT LHoodieString2
						{
							OFFSET 0.000000 -9.643799 2.679100
							CHANNELS 3 Xrotation Yrotation Zrotation
							End Site
							{
								OFFSET 0.000000 10.009018 0.000000
							}
						}
					}
				}
				JOINT RHoodieString
				{
					OFFSET -5.250500 16.397697 3.089900
					CHANNELS 3 Xrotation Yrotation Zrotation
					JOINT RHoodieString1
					{
						OFFSET -0.257700 -6.364304 3.694600
						CHANNELS 3 Xrotation Yrotation Zrotation
						JOINT RHoodieString2
						{
							OFFSET 0.000000 -9.643799 2.679100
							CHANNELS 3 Xrotation Yrotation Zrotation
							End Site
							{
								OFFSET 0.000000 10.009018 0.000000
							}
						}
					}
				}
			}
			JOINT LBackpack_Strap
			{
				OFFSET 15.223200 -7.719803 -6.610900
				CHANNELS 3 Xrotation Yrotation Zrotation
				End Site
				{
					OFFSET 0.000000 16.040596 0.000000
				}
			}
			JOINT RBackpack_Strap
			{
				OFFSET -15.223000 -7.719803 -6.610900
				CHANNELS 3 Xrotation Yrotation Zrotation
				End Site
				{
					OFFSET 0.000000 16.040596 0.000000
				}
			}
		}
	}
	JOINT BoyFacialAnim_Joint
	{
		OFFSET 1.000000 -82.208099 -1.550900
		CHANNELS 3 Xrotation Yrotation Zrotation
		End Site
		{
			OFFSET 0.000000 30.012791 0.000000
		}
	}
}
MOTION
Frames: 4
Frame Time: 0.033333
-0.115313 77.932739 -0.097632 -11.186954 -55.888655 -7.390670 -0.000000 -0.000000 -0.000000 -23.191269 12.761159 16.212789 28.424903 14.701615 0.105073 3.647550 0.181802 -9.267227 -0.000000 0.000000 -0.000000 -0.000000 0.000000 0.000000 -0.000000 0.000001 0.000001 -21.320932 -18.557426 -21.914454 37.731840 -3.748642 -3.241223 -11.869091 1.510234 11.254873 -0.000000 0.000001 -0.000000 -0.000000 0.000001 -0.000000 -0.000001 -0.000000 -0.000001 5.234824 0.424584 0.634647 4.889986 1.031129 0.310635 8.440143 0.951565 0.055299 2.541194 5.577119 -0.203970 2.365751 37.182754 -7.332637 0.000001 -0.000000 0.000001 0.000001 -0.000000 0.000001 0.000001 -0.000000 0.000001 8.936007 -24.743351 -2.968072 -26.194754 8.729989 -60.271147 -91.197055 12.809852 -86.391108 -27.662684 -7.414190 -5.804174 0.699120 9.503380 -2.418116 5.975207 12.647532 1.348332 0.000000 -0.000001 0.000000 9.479713 -1.289782 -20.785551 0.709475 2.796473 -28.467090 -0.000002 -0.000001 -0.000009 10.058169 -1.800575 -20.644720 1.774254 4.200513 -45.782126 0.000002 -0.000000 0.000002 1.254231 -0.073719 -17.945772 3.754108 5.463591 -68.965335 -0.000003 -0.000000 -0.000000 -7.938255 1.609107 -6.495673 2.210593 4.583671 -51.475191 0.000001 -0.000002 0.000003 0.000001 0.000003 -0.000000 10.577562 20.068742 -2.169519 3.881267 34.858980 47.008412 69.456610 116.615768 -83.156187 -10.289093 22.309543 13.473708 13.942446 -4.273684 -5.300395 7.113216 -20.767513 -2.619491 0.000000 0.000000 -0.000001 0.357773 -5.832699 5.175850 0.094391 -0.933635 11.539882 -0.000001 -0.000003 0.000001 3.764084 -12.080515 1.143765 5.714307 -4.535874 103.133500 0.000000 0.000001 -0.000000 -12.155610 -12.623912 9.228320 6.566874 -4.248457 114.232332 -0.000001 0.000000 0.000000 -17.635750 -10.496851 3.325454 4.993667 -4.645035 94.147908 -0.000001 -0.000001 0.000000 -0.000000 0.000000 0.000001 -0.000000 -0.000003 0.000001 -0.000000 -0.000003 0.000001 -0.000000 -0.000003 0.000001 -0.000000 -0.000003 0.000001 -0.000000 -0.000003 0.000001 -0.000000 -0.000002 0.000000 -0.000000 -0.000003 0.000001 -0.000000 -0.000003 0.000001 -0.000000 -0.000002 0.000000 0.000000 -0.000002 0.000000 0.000000 -0.000002 0.000000 -0.000000 -0.000000 -0.000000 
2.299685 64.785591 -2.503430 23.790246 -52.578912 25.454662 -0.000001 -0.000002 0.000001 -69.273773 2.198436 16.666592 69.388267 15.916079 -1.710399 -7.164673 2.635596 -14.593102 0.000000 -0.000002 -0.000000 0.000000 -0.000002 -0.000000 0.000001 0.000001 0.000000 -64.317542 4.083915 -22.542377 80.562703 -9.440816 -2.970126 -25.664863 -5.008874 16.162369 -0.000000 -0.000000 0.000000 -0.000000 -0.000000 0.000000 0.000002 -0.000001 -0.000002 9.262747 0.586823 -0.992660 4.904537 0.759617 0.338553 8.451427 0.688494 0.124782 -1.925119 5.398624 -0.903021 -5.911838 36.110128 -7.604843 -0.000000 0.000000 0.000000 -0.000000 0.000000 0.000000 -0.000000 0.000000 0.000000 6.109719 -29.093071 -7.590896 -31.965821 21.580546 -50.699173 -86.140112 12.607491 -107.179506 -30.339874 -3.848956 -4.594670 0.699117 9.503380 -2.418117 5.975207 12.647529 1.348333 -0.000000 0.000000 0.000000 9.479710 -1.289783 -20.785548 0.709474 2.796476 -28.467091 0.000001 0.000002 -0.000001 10.058168 -1.800577 -20.644720 1.774254 4.200508 -45.782130 0.000002 -0.000003 -0.000000 1.254230 -0.073718 -17.945774 3.754105 5.463593 -68.965335 -0.000001 0.000003 -0.000003 -7.938259 1.609104 -6.495673 2.210593 4.583663 -51.475191 -0.000001 -0.000005 0.000002 0.000000 0.000003 -0.000001 9.200320 24.104400 -1.237992 -0.982558 29.775373 49.498214 47.472086 126.082833 -55.528120 13.888841 15.631856 8.971307 13.942443 -4.273683 -5.300395 7.113218 -20.767515 -2.619490 0.000000 0.000000 0.000001 0.357772 -5.832698 5.175851 0.094390 -0.933635 11.539880 -0.000000 0.000000 0.000002 3.764083 -12.080515 1.143766 5.714307 -4.535876 103.133500 0.000001 0.000000 0.000001 -12.155612 -12.623913 9.228316 6.566875 -4.248458 114.232325 0.000001 0.000000 0.000004 -17.635752 -10.496852 3.325453 4.993665 -4.645034 94.147908 0.000001 0.000001 -0.000001 -0.000002 -0.000000 -0.000000 0.000001 0.000000 0.000001 0.000001 0.000000 0.000001 0.000001 0.000000 0.000001 0.000001 0.000000 0.000001 0.000001 0.000000 -0.000000 0.000001 0.000000 0.000000 0.000001 0.000000 0.000001 0.000001 0.000000 -0.000000 0.000001 0.000000 0.000000 -0.000001 0.000001 0.000001 -0.000001 0.000001 0.000001 -0.000001 -0.000002 0.000001 
2.786531 58.392632 -2.991072 33.033353 -48.904677 32.760606 -0.000001 0.000001 0.000000 -86.002600 -3.041407 16.882839 83.364412 15.618274 -2.289048 -9.328623 3.091446 -17.027655 -0.000000 -0.000002 0.000000 -0.000000 -0.000002 0.000000 -0.000000 0.000000 0.000000 -79.631352 9.467534 -22.350653 94.853029 -8.189214 -2.293354 -29.661708 -6.779980 17.194417 0.000000 0.000000 0.000000 0.000000 0.000000 0.000000 -0.000002 -0.000001 -0.000001 11.339475 0.534549 -0.838996 4.885096 0.124417 0.424458 8.428359 0.071133 0.296405 -6.012018 5.144140 -1.564617 -13.400425 34.670720 -7.564179 0.000001 -0.000002 -0.000001 0.000001 -0.000002 -0.000001 0.000001 -0.000002 -0.000001 4.047912 -31.544566 -10.443918 -41.515065 24.936177 -44.172691 -85.740772 10.793578 -108.797209 -32.770954 -1.635919 -2.374073 0.699119 9.503385 -2.418115 5.975205 12.647535 1.348334 0.000001 0.000002 0.000001 9.479713 -1.289780 -20.785550 0.709475 2.796473 -28.467093 0.000001 -0.000003 -0.000006 10.058169 -1.800579 -20.644720 1.774252 4.200508 -45.782130 0.000003 -0.000001 -0.000002 1.254229 -0.073716 -17.945771 3.754105 5.463592 -68.965335 -0.000004 0.000001 -0.000004 -7.938256 1.609105 -6.495675 2.210593 4.583671 -51.475191 -0.000003 0.000001 0.000002 0.000000 0.000001 0.000000 8.172519 26.367273 -0.027893 -8.910862 27.432420 51.770723 47.745358 125.332236 -54.484580 16.353385 13.173218 13.050033 13.942444 -4.273684 -5.300396 7.113217 -20.767515 -2.619490 -0.000000 -0.000001 -0.000001 0.357773 -5.832699 5.175849 0.094390 -0.933634 11.539884 -0.000002 -0.000001 -0.000000 3.764084 -12.080515 1.143765 5.714308 -4.535875 103.133500 0.000001 0.000001 -0.000000 -12.155613 -12.623914 9.228319 6.566876 -4.248456 114.232332 -0.000001 0.000001 0.000001 -17.635750 -10.496852 3.325454 4.993664 -4.645035 94.147908 0.000000 0.000001 0.000002 -0.000001 -0.000000 0.000000 0.000001 0.000002 -0.000001 0.000001 0.000002 -0.000001 0.000001 0.000002 -0.000001 0.000001 0.000002 -0.000001 0.000001 0.000002 -0.000000 0.000001 0.000000 -0.000001 0.000001 0.000002 -0.000001 0.000001 0.000002 -0.000000 0.000001 0.000000 -0.000001 0.000002 0.000001 -0.000000 0.000002 0.000001 -0.000000 -0.000001 0.000001 0.000000 
2.359718 57.100594 -2.793196 32.742697 -48.640530 31.346501 0.000000 0.000003 -0.000002 -87.858991 -5.050921 17.510081 86.787710 15.636239 -2.411142 -10.532574 2.140203 -17.752922 -0.000000 0.000002 0.000000 -0.000000 0.000002 0.000000 -0.000001 -0.000003 -0.000000 -80.510787 8.333861 -23.322384 97.613328 -8.497752 -2.199795 -31.578973 -5.655849 17.657810 0.000000 -0.000000 -0.000000 0.000000 -0.000000 -0.000000 -0.000004 0.000001 -0.000000 11.837851 0.385076 -0.687970 4.882932 0.068391 0.430901 8.425943 0.016411 0.310606 -7.001429 5.033709 -1.758792 -15.113624 33.934986 -7.315838 0.000001 0.000001 0.000000 0.000001 0.000001 0.000000 0.000001 0.000001 0.000000 3.448528 -32.240699 -11.261299 -43.713798 23.651280 -43.376762 -86.122593 10.447761 -105.530480 -31.415684 -0.886333 -2.523844 0.699118 9.503388 -2.418115 5.975206 12.647530 1.348333 0.000002 -0.000000 0.000001 9.479714 -1.289777 -20.785550 0.709474 2.796472 -28.467091 -0.000002 0.000000 -0.000005 10.058169 -1.800577 -20.644721 1.774252 4.200504 -45.782130 -0.000001 0.000000 -0.000001 1.254228 -0.073707 -17.945772 3.754105 5.463590 -68.965342 0.000001 -0.000001 -0.000002 -7.938256 1.609111 -6.495673 2.210592 4.583669 -51.475191 -0.000003 -0.000000 -0.000000 -0.000000 0.000003 -0.000000 7.852930 26.896827 0.054060 -11.271556 25.691296 52.291792 53.447115 123.643090 -60.299806 14.345322 15.808075 15.079074 13.942445 -4.273684 -5.300395 7.113218 -20.767515 -2.619487 -0.000000 0.000000 0.000001 0.357773 -5.832696 5.175850 0.094391 -0.933636 11.539882 -0.000001 0.000001 0.000002 3.764084 -12.080516 1.143765 5.714307 -4.535876 103.133500 0.000000 0.000001 -0.000000 -12.155611 -12.623916 9.228320 6.566876 -4.248458 114.232325 -0.000002 0.000002 0.000001 -17.635750 -10.496851 3.325452 4.993663 -4.645032 94.147901 0.000000 0.000002 0.000002 -0.000002 0.000000 -0.000000 -0.000001 0.000000 0.000000 -0.000001 0.000000 0.000000 -0.000001 0.000000 0.000000 -0.000001 0.000000 0.000000 -0.000001 0.000000 0.000001 -0.000002 -0.000003 0.000001 -0.000001 0.000000 0.000000 -0.000001 0.000000 0.000001 -0.000002 -0.000003 0.000001 -0.000000 -0.000002 -0.000000 -0.000000 -0.000002 -0.000000 0.000000 0.000003 -0.000002 
